# xmcd
#
# Track frame offsets: 
#        150
#        21846
#        31277
#        44585
#        71496
#        93170
#        118325
#        135922
#        152153
#        175902
#        197697
#        211583
#        226653
#
# Disc length: 3258 seconds
#
# Revision: 0
# Processed by: cddbd v1.5.2PL0 Copyright (c) Steve Scherf et al.
# Submitted via: ExactAudioCopyFreeDBPlugin 1.0
#
DISCID=a40cb80d
DTITLE=Brian Bromberg - Hands
DYEAR=2009
DGENRE=Jazz
TTITLE0=stella by starlight
TTITLE1=cute
TTITLE2=solar
TTITLE3=beatles medley
TTITLE4=manha de carnival
TTITLE5=in a sentimental mood
TTITLE6=king of pain
TTITLE7=teen town
TTITLE8=susumu's blus
TTITLE9=use me
TTITLE10=black dog
TTITLE11=what are you ding the rest of your life
TTITLE12=yeah
EXTD=
EXTT0=
EXTT1=
EXTT2=
EXTT3=
EXTT4=
EXTT5=
EXTT6=
EXTT7=
EXTT8=
EXTT9=
EXTT10=
EXTT11=
EXTT12=
PLAYORDER=
